<?xml version="1.0" standalone="no"?>
<!DOCTYPE svg PUBLIC "-//W3C//DTD SVG 20010904//EN"
 "http://www.w3.org/TR/2001/REC-SVG-20010904/DTD/svg10.dtd">
<svg version="1.0" xmlns="http://www.w3.org/2000/svg"
 width="512.000000pt" height="512.000000pt" viewBox="0 0 512.000000 512.000000"
 preserveAspectRatio="xMidYMid meet">

<g transform="translate(0.000000,512.000000) scale(0.100000,-0.100000)"
fill="#000000" stroke="none">
<path d="M1275 5109 c-104 -15 -257 -59 -360 -103 -458 -194 -782 -590 -891
-1086 -18 -80 -19 -153 -19 -1360 0 -1207 1 -1280 19 -1360 65 -299 205 -557
415 -765 211 -210 463 -346 761 -411 80 -18 153 -19 1360 -19 1207 0 1280 1
1360 19 299 65 557 205 765 415 210 211 346 463 411 761 18 80 19 153 19 1360
0 1207 -1 1280 -19 1360 -65 299 -201 550 -411 761 -204 206 -441 337 -744
412 -85 21 -98 21 -1346 23 -693 1 -1287 -2 -1320 -7z m1620 -1259 c360 -55
613 -51 793 9 31 11 59 17 61 15 3 -3 5 -51 5 -107 0 -116 -19 -175 -77 -235
-67 -70 -147 -94 -317 -93 -105 0 -197 13 -507 68 l-33 6 0 -1157 0 -1156
-255 0 -255 0 0 1196 0 1196 -97 -7 c-295 -21 -435 -119 -490 -342 -23 -96
-23 -345 0 -430 20 -77 50 -139 86 -176 l26 -29 -60 7 c-294 33 -410 171 -408
485 2 229 60 379 202 520 131 130 300 208 526 244 148 24 162 24 385 21 167
-3 244 -10 415 -35z"/>
</g>
</svg>
